<?xml version="1.0" encoding="UTF-8"?>
<svg width="19px" height="20px" viewBox="0 0 19 20" version="1.1" xmlns="http://www.w3.org/2000/svg" xmlns:xlink="http://www.w3.org/1999/xlink">
    <!-- Generator: Sketch 51.2 (57519) - http://www.bohemiancoding.com/sketch -->
    <title>Clock - simple-line-icons Copy</title>
    <desc>Created with Sketch.</desc>
    <defs></defs>
    <g id="Page-1" stroke="none" stroke-width="1" fill="none" fill-rule="evenodd">
        <g id="Group-9-Copy" transform="translate(-505.000000, -28.000000)" fill="#000000">
            <path d="M514.375,28.421875 C515.668952,28.421875 516.886591,28.6660132 518.027954,29.1542969 C519.169317,29.6425806 520.16418,30.3109088 521.012573,31.1593018 C521.860966,32.0076947 522.529294,33.0025578 523.017578,34.1439209 C523.505862,35.285284 523.75,36.5029232 523.75,37.796875 C523.75,39.0908268 523.505862,40.308466 523.017578,41.4498291 C522.529294,42.5911922 521.860966,43.5860553 521.012573,44.4344482 C520.16418,45.2828412 519.169317,45.9511694 518.027954,46.4394531 C516.886591,46.9277368 515.668952,47.171875 514.375,47.171875 C513.081048,47.171875 511.863409,46.9277368 510.722046,46.4394531 C509.580683,45.9511694 508.58582,45.2828412 507.737427,44.4344482 C506.889034,43.5860553 506.220706,42.5911922 505.732422,41.4498291 C505.244138,40.308466 505,39.0908268 505,37.796875 C505,36.5029232 505.244138,35.285284 505.732422,34.1439209 C506.220706,33.0025578 506.889034,32.0076947 507.737427,31.1593018 C508.58582,30.3109088 509.580683,29.6425806 510.722046,29.1542969 C511.863409,28.6660132 513.081048,28.421875 514.375,28.421875 Z M514.375,46.0183105 C515.51026,46.0183105 516.575312,45.8016379 517.57019,45.3682861 C518.565068,44.9349344 519.431759,44.345951 520.170288,43.6013184 C520.908817,42.8566857 521.494749,41.9869435 521.928101,40.9920654 C522.361452,39.9971874 522.578125,38.9321346 522.578125,37.796875 C522.578125,36.6616154 522.361452,35.5965626 521.928101,34.6016846 C521.494749,33.6068065 520.908817,32.740116 520.170288,32.0015869 C519.431759,31.2630578 518.565068,30.6771262 517.57019,30.2437744 C516.575312,29.8104226 515.51026,29.59375 514.375,29.59375 C513.23974,29.59375 512.174688,29.8104226 511.17981,30.2437744 C510.184932,30.6771262 509.318241,31.2630578 508.579712,32.0015869 C507.841183,32.740116 507.255251,33.6068065 506.821899,34.6016846 C506.388548,35.5965626 506.171875,36.6616154 506.171875,37.796875 C506.171875,38.9321346 506.388548,39.9971874 506.821899,40.9920654 C507.255251,41.9869435 507.841183,42.8566857 508.579712,43.6013184 C509.318241,44.345951 510.184932,44.9349344 511.17981,45.3682861 C512.174688,45.8016379 513.23974,46.0183105 514.375,46.0183105 Z M514.960938,37.5588379 L517.72583,40.3237305 C517.835694,40.4335943 517.890625,40.570922 517.890625,40.7357178 C517.890625,40.9005135 517.835694,41.0378412 517.72583,41.1477051 C517.615966,41.269776 517.478639,41.3308105 517.313843,41.3308105 C517.149047,41.3308105 517.011719,41.269776 516.901855,41.1477051 L513.990479,38.2546387 C513.990479,38.2424316 513.987427,38.2332764 513.981323,38.2271729 C513.97522,38.2210693 513.972168,38.2180176 513.972168,38.2180176 C513.911133,38.1691892 513.865357,38.1081547 513.834839,38.0349121 C513.804321,37.9616696 513.789062,37.8823246 513.789062,37.796875 L513.789062,31.9375 C513.789062,31.7788078 513.847045,31.6414801 513.963013,31.5255127 C514.07898,31.4095453 514.216308,31.3515625 514.375,31.3515625 C514.533692,31.3515625 514.67102,31.4095453 514.786987,31.5255127 C514.902955,31.6414801 514.960938,31.7788078 514.960938,31.9375 L514.960938,37.5588379 Z" id="Clock---simple-line-icons-Copy"></path>
        </g>
    </g>
</svg>