<?xml version="1.0" encoding="UTF-8"?>
<svg width="21px" height="21px" viewBox="0 0 21 21" version="1.1" xmlns="http://www.w3.org/2000/svg" xmlns:xlink="http://www.w3.org/1999/xlink">
    <!-- Generator: Sketch 51.2 (57519) - http://www.bohemiancoding.com/sketch -->
    <title>note - simple-line-icons copy 2</title>
    <desc>Created with Sketch.</desc>
    <defs></defs>
    <g id="Page-1" stroke="none" stroke-width="1" fill="none" fill-rule="evenodd">
        <path d="M16.215332,19 L16.215332,11.2495117 L17.434082,10.0878906 L17.434082,19 C17.434082,19.3427752 17.3166516,19.6315906 17.0817871,19.8664551 C16.8469227,20.1013195 16.5581072,20.21875 16.215332,20.21875 L2.19970703,20.21875 C1.86962726,20.21875 1.58398558,20.1013195 1.34277344,19.8664551 C1.10156129,19.6315906 0.980957031,19.3427752 0.980957031,19 L0.980957031,3.765625 C0.980957031,3.43554522 1.10156129,3.14990355 1.34277344,2.90869141 C1.58398558,2.66747926 1.86962726,2.546875 2.19970703,2.546875 L11.96875,2.546875 L12.0068359,2.58496094 L10.769043,3.765625 L2.19970703,3.765625 L2.19970703,19 L16.215332,19 Z M19.5478516,1.49951172 C19.865236,1.80420074 20.1032707,2.11523279 20.2619629,2.43261719 C20.4206551,2.75000159 20.5063476,3.08007641 20.519043,3.42285156 C20.519043,3.75293134 20.4428719,4.08300616 20.2905273,4.41308594 C20.1381828,4.74316571 19.9033219,5.07324054 19.5859375,5.40332031 C19.4462884,5.55566482 18.9448285,6.05712465 18.081543,6.90771484 C17.2182574,7.75830503 16.2915089,8.6691846 15.3012695,9.64038086 C14.3110302,10.6115771 13.4001506,11.5097615 12.5686035,12.3349609 C11.7370564,13.1601604 11.2768559,13.6171871 11.1879883,13.7060547 C11.1499022,13.7314454 11.1149904,13.7568358 11.083252,13.7822266 C11.0515135,13.8076173 11.0166018,13.8266601 10.9785156,13.8393555 C10.8261711,13.8774416 10.5151391,13.9726555 10.0454102,14.125 C9.57568125,14.2773445 9.0869166,14.4328605 8.57910156,14.5915527 C8.07128652,14.7502449 7.62060744,14.8962396 7.22705078,15.029541 C6.83349413,15.1628425 6.63037116,15.2294922 6.61767578,15.2294922 C6.59228503,15.2294922 6.56689466,15.232666 6.54150391,15.2390137 C6.51611315,15.2453614 6.49072278,15.2485352 6.46533203,15.2485352 C6.40185515,15.2485352 6.33837922,15.23584 6.27490234,15.2104492 C6.21142546,15.1850585 6.15429713,15.1469729 6.10351562,15.0961914 C6.04003875,15.0327145 5.9956056,14.9533696 5.97021484,14.8581543 C5.94482409,14.762939 5.94482409,14.6708989 5.97021484,14.5820312 C5.97021484,14.5693359 6.03051698,14.3693867 6.15112305,13.9821777 C6.27172912,13.5949688 6.40820236,13.1506373 6.56054688,12.6491699 C6.71289139,12.1477026 6.85888602,11.6557641 6.99853516,11.1733398 C7.13818429,10.6909156 7.23974578,10.3481455 7.30322266,10.1450195 C7.31591803,10.1069334 7.33178701,10.0688478 7.35083008,10.0307617 C7.36987314,9.99267559 7.39843731,9.95459003 7.43652344,9.91650391 L8.70288086,8.65014648 C9.54712336,7.80590398 10.4833933,6.87280784 11.5117188,5.85083008 C12.5400442,4.82885231 13.4921831,3.8767134 14.3681641,2.99438477 C15.244145,2.11205614 15.7202145,1.63916047 15.7963867,1.57568359 C15.8979497,1.47412059 16.1232893,1.30590938 16.4724121,1.07104492 C16.8215349,0.836180466 17.2436499,0.71875 17.7387695,0.71875 C18.0688493,0.71875 18.3862289,0.785399724 18.690918,0.918701172 C18.995607,1.05200262 19.2812487,1.2456042 19.5478516,1.49951172 Z M18.7099609,4.54638672 C18.913087,4.3432607 19.0622554,4.14965912 19.1574707,3.96557617 C19.252686,3.78149322 19.300293,3.60693442 19.300293,3.44189453 C19.2875976,3.27685464 19.2336431,3.10546964 19.1384277,2.92773438 C19.0432124,2.74999911 18.9003916,2.57226651 18.7099609,2.39453125 C18.544921,2.24218674 18.3830574,2.12793007 18.2243652,2.05175781 C18.065673,1.97558556 17.9038094,1.9375 17.7387695,1.9375 C17.4594713,1.9375 17.2150889,2.01367111 17.0056152,2.16601562 C16.7961415,2.31836014 16.6787111,2.40722644 16.6533203,2.43261719 L12.8352051,6.25073242 C11.8893996,7.19653793 10.9816938,8.1010699 10.1120605,8.96435547 C9.24242729,9.82764104 8.68066533,10.3862292 8.42675781,10.6401367 C8.33789018,10.9575211 8.20776453,11.4050264 8.03637695,11.982666 C7.86498938,12.5603056 7.69677817,13.11572 7.53173828,13.6489258 C8.03955332,13.4838859 8.5822725,13.3093271 9.15991211,13.1252441 C9.73755172,12.9411612 10.1660142,12.8046879 10.4453125,12.7158203 L10.8261719,12.3540039 C12.044928,11.1479432 13.1271925,10.0783738 14.072998,9.14526367 C15.0188036,8.21215354 15.821774,7.41870444 16.4819336,6.76489258 C17.1420931,6.11108072 17.659422,5.6000995 18.0339355,5.23193359 C18.4084491,4.86376769 18.6337887,4.63525435 18.7099609,4.54638672 Z" id="note---simple-line-icons-copy-2" fill="#9855CA"></path>
    </g>
</svg>