<?xml version="1.0" encoding="UTF-8"?>
<svg width="17px" height="22px" viewBox="0 0 17 22" version="1.1" xmlns="http://www.w3.org/2000/svg" xmlns:xlink="http://www.w3.org/1999/xlink">
    <!-- Generator: Sketch 51.2 (57519) - http://www.bohemiancoding.com/sketch -->
    <title>Location-pin - simple-line-icons Copy</title>
    <desc>Created with Sketch.</desc>
    <defs></defs>
    <g id="Page-1" stroke="none" stroke-width="1" fill="none" fill-rule="evenodd">
        <path d="M8.58203125,0.3125 C9.81250615,0.3125 10.9130811,0.524411943 11.8837891,0.948242188 C12.854497,1.37207243 13.6713834,1.94970337 14.3344727,2.68115234 C14.9975619,3.41260131 15.5034162,4.26366702 15.8520508,5.234375 C16.2006853,6.20508298 16.375,7.23046335 16.375,8.31054688 C16.375,9.40430234 16.1596701,10.5219669 15.7290039,11.6635742 C15.2983377,12.8051815 14.7548861,13.926264 14.0986328,15.0268555 C13.4423795,16.1274469 12.7314491,17.169917 11.9658203,18.1542969 C11.2001915,19.1386768 10.4824252,20.013668 9.8125,20.7792969 C9.8125,20.7929688 9.70996196,20.8852531 9.50488281,21.0561523 C9.29980366,21.2270516 9.06054824,21.3125 8.78710938,21.3125 L8.72558594,21.3125 C8.43847513,21.3125 8.19580177,21.2270516 7.99755859,21.0561523 C7.79931542,20.8852531 7.70019531,20.7929688 7.70019531,20.7792969 C6.98925426,19.9589803 6.22021898,19.0634814 5.39306641,18.0927734 C4.56591383,17.1220655 3.80029649,16.100103 3.09619141,15.0268555 C2.39208632,13.9536079 1.80420158,12.849615 1.33251953,11.7148438 C0.860837485,10.5800725 0.625,9.44531817 0.625,8.31054688 C0.625,7.23046335 0.836911943,6.20508298 1.26074219,5.234375 C1.68457243,4.26366702 2.25878544,3.41260131 2.98339844,2.68115234 C3.70801144,1.94970337 4.55224127,1.37207243 5.51611328,0.948242188 C6.47998529,0.524411943 7.50194772,0.3125 8.58203125,0.3125 Z M8.828125,19.8974609 C9.8671927,18.7080019 10.7763633,17.5732476 11.5556641,16.4931641 C12.3349648,15.4130805 12.9843724,14.3911181 13.5039062,13.4272461 C14.0234401,12.4633741 14.4130846,11.5542035 14.6728516,10.699707 C14.9326185,9.84521057 15.0625,9.04883182 15.0625,8.31054688 C15.0625,7.47655833 14.9360364,6.65967197 14.6831055,5.85986328 C14.4301745,5.06005459 14.037112,4.34570627 13.5039062,3.71679688 C12.9707005,3.08788748 12.2973673,2.58203316 11.4838867,2.19921875 C10.6704061,1.81640434 9.70313061,1.625 8.58203125,1.625 C7.67968299,1.625 6.82519935,1.8027326 6.01855469,2.15820312 C5.21191003,2.51367365 4.50781551,2.99560243 3.90625,3.60400391 C3.30468449,4.21240539 2.82617365,4.92333578 2.47070312,5.73681641 C2.1152326,6.55029704 1.9375,7.40819861 1.9375,8.31054688 C1.9375,9.28125485 2.14257607,10.26562 2.55273438,11.2636719 C2.96289268,12.2617237 3.48241873,13.242671 4.11132812,14.206543 C4.74023752,15.170415 5.4306603,16.1000932 6.18261719,16.9956055 C6.93457407,17.8911178 7.64550446,18.7285117 8.31542969,19.5078125 L8.6640625,19.8974609 L8.74609375,19.9794922 C8.75976569,19.9658202 8.77685537,19.9521485 8.79736328,19.9384766 C8.8178712,19.9248046 8.828125,19.9111329 8.828125,19.8974609 Z M8.52050781,4.27050781 C9.61426328,4.27050781 10.5439415,4.65673442 11.3095703,5.42919922 C12.0751991,6.20166402 12.4580078,7.12792429 12.4580078,8.20800781 C12.4580078,9.30176328 12.0751991,10.2314415 11.3095703,10.9970703 C10.5439415,11.7626991 9.61426328,12.1455078 8.52050781,12.1455078 C7.44042429,12.1455078 6.51416402,11.7626991 5.74169922,10.9970703 C4.96923442,10.2314415 4.58300781,9.30176328 4.58300781,8.20800781 C4.58300781,7.12792429 4.96923442,6.20166402 5.74169922,5.42919922 C6.51416402,4.65673442 7.44042429,4.27050781 8.52050781,4.27050781 Z M8.52050781,10.8330078 C9.24512081,10.8330078 9.86034903,10.5732448 10.3662109,10.0537109 C10.8720728,9.53417709 11.125,8.912113 11.125,8.1875 C11.125,7.462887 10.8686549,6.84424084 10.355957,6.33154297 C9.84325916,5.81884509 9.224613,5.5625 8.5,5.5625 C7.775387,5.5625 7.15674084,5.81884509 6.64404297,6.33154297 C6.13134509,6.84424084 5.875,7.462887 5.875,8.1875 C5.875,8.912113 6.13476303,9.53417709 6.65429688,10.0537109 C7.17383072,10.5732448 7.79589481,10.8330078 8.52050781,10.8330078 Z" id="Location-pin---simple-line-icons-Copy" fill="#000000"></path>
    </g>
</svg>