<?xml version="1.0" encoding="UTF-8"?>
<svg width="19px" height="17px" viewBox="0 0 19 17" version="1.1" xmlns="http://www.w3.org/2000/svg" xmlns:xlink="http://www.w3.org/1999/xlink">
    <!-- Generator: Sketch 51.2 (57519) - http://www.bohemiancoding.com/sketch -->
    <title>speech - simple-line-icons copy</title>
    <desc>Created with Sketch.</desc>
    <defs></defs>
    <g id="Page-1" stroke="none" stroke-width="1" fill="none" fill-rule="evenodd">
        <g id="Group-10-Copy" transform="translate(-460.000000, -30.000000)" fill="#000000">
            <path d="M477.578125,30.59375 C477.907716,30.59375 478.185424,30.7066639 478.411255,30.9324951 C478.637086,31.1583263 478.75,31.4360335 478.75,31.765625 L478.75,42.3308105 C478.75,42.660402 478.637086,42.9381092 478.411255,43.1639404 C478.185424,43.3897716 477.907716,43.5026855 477.578125,43.5026855 L467.891846,43.5026855 L464.504395,46.8352051 C464.443359,46.8962405 464.379273,46.9389647 464.312134,46.9633789 C464.244995,46.9877931 464.174805,47 464.101562,47 C464.052734,47 464.01001,46.9969483 463.973389,46.9908447 C463.936767,46.9847412 463.900147,46.975586 463.863525,46.9633789 C463.753662,46.9145505 463.668213,46.8413091 463.607178,46.7436523 C463.546142,46.6459956 463.515625,46.5361334 463.515625,46.4140625 L463.515625,43.5026855 L461.171875,43.5026855 C460.842284,43.5026855 460.564576,43.3897716 460.338745,43.1639404 C460.112914,42.9381092 460,42.660402 460,42.3308105 L460,31.765625 C460,31.4360335 460.112914,31.1583263 460.338745,30.9324951 C460.564576,30.7066639 460.842284,30.59375 461.171875,30.59375 L477.578125,30.59375 Z M477.578125,42.3308105 L477.578125,31.765625 L461.171875,31.765625 L461.171875,42.3308105 L464.6875,42.3308105 L464.6875,45.0224609 L467.415771,42.3308105 L477.578125,42.3308105 Z M464.101562,37.6433105 C463.94287,37.6433105 463.805543,37.5853277 463.689575,37.4693604 C463.573608,37.353393 463.515625,37.2160652 463.515625,37.057373 C463.515625,36.8986808 463.573608,36.7613531 463.689575,36.6453857 C463.805543,36.5294184 463.94287,36.4714355 464.101562,36.4714355 L474.648438,36.4714355 C474.80713,36.4714355 474.944457,36.5294184 475.060425,36.6453857 C475.176392,36.7613531 475.234375,36.8986808 475.234375,37.057373 C475.234375,37.2160652 475.176392,37.353393 475.060425,37.4693604 C474.944457,37.5853277 474.80713,37.6433105 474.648438,37.6433105 L464.101562,37.6433105 Z M464.101562,35.2995605 C463.94287,35.2995605 463.805543,35.2415777 463.689575,35.1256104 C463.573608,35.009643 463.515625,34.8723152 463.515625,34.713623 C463.515625,34.5549308 463.573608,34.4176031 463.689575,34.3016357 C463.805543,34.1856684 463.94287,34.1276855 464.101562,34.1276855 L474.648438,34.1276855 C474.80713,34.1276855 474.944457,34.1856684 475.060425,34.3016357 C475.176392,34.4176031 475.234375,34.5549308 475.234375,34.713623 C475.234375,34.8723152 475.176392,35.009643 475.060425,35.1256104 C474.944457,35.2415777 474.80713,35.2995605 474.648438,35.2995605 L464.101562,35.2995605 Z M464.101562,39.9870605 C463.94287,39.9870605 463.805543,39.9290777 463.689575,39.8131104 C463.573608,39.697143 463.515625,39.5598152 463.515625,39.401123 C463.515625,39.2424308 463.573608,39.1051031 463.689575,38.9891357 C463.805543,38.8731684 463.94287,38.8151855 464.101562,38.8151855 L471.132812,38.8151855 C471.291505,38.8151855 471.428832,38.8731684 471.5448,38.9891357 C471.660767,39.1051031 471.71875,39.2424308 471.71875,39.401123 C471.71875,39.5598152 471.660767,39.697143 471.5448,39.8131104 C471.428832,39.9290777 471.291505,39.9870605 471.132812,39.9870605 L464.101562,39.9870605 Z" id="speech---simple-line-icons-copy"></path>
        </g>
    </g>
</svg>