<?xml version="1.0" encoding="UTF-8"?>
<svg width="19px" height="22px" viewBox="0 0 19 22" version="1.1" xmlns="http://www.w3.org/2000/svg" xmlns:xlink="http://www.w3.org/1999/xlink">
    <!-- Generator: Sketch 51.2 (57519) - http://www.bohemiancoding.com/sketch -->
    <title>Trash - simple-line-icons Copy 4</title>
    <desc>Created with Sketch.</desc>
    <defs></defs>
    <g id="Page-1" stroke="none" stroke-width="1" fill="none" fill-rule="evenodd">
        <path d="M17.3955078,3.57324219 C17.5732431,3.57324219 17.7270501,3.63818294 17.8569336,3.76806641 C17.9868171,3.89794987 18.0517578,4.05175692 18.0517578,4.22949219 C18.0517578,4.40722745 17.9868171,4.56103451 17.8569336,4.69091797 C17.7270501,4.82080143 17.5732431,4.88574219 17.3955078,4.88574219 L16.4931641,4.88574219 L14.9550781,20.0615234 C14.9277342,20.416994 14.7807631,20.7177722 14.5141602,20.9638672 C14.2475573,21.2099622 13.9365252,21.3330078 13.5810547,21.3330078 L5.41894531,21.3330078 C5.06347479,21.3330078 4.75244274,21.2099622 4.48583984,20.9638672 C4.21923695,20.7177722 4.06542989,20.416994 4.02441406,20.0615234 L2.50683594,4.88574219 L1.60449219,4.88574219 C1.42675692,4.88574219 1.27294987,4.82080143 1.14306641,4.69091797 C1.01318294,4.56103451 0.948242188,4.40722745 0.948242188,4.22949219 C0.948242188,4.05175692 1.01318294,3.89794987 1.14306641,3.76806641 C1.27294987,3.63818294 1.42675692,3.57324219 1.60449219,3.57324219 L6.21875,3.57324219 L6.21875,1.7890625 C6.21875,1.36523226 6.36913912,1.00976706 6.66992188,0.72265625 C6.97070463,0.435545439 7.32616982,0.291992188 7.73632812,0.291992188 L11.2636719,0.291992188 C11.6738302,0.291992188 12.0292954,0.435545439 12.3300781,0.72265625 C12.6308609,1.00976706 12.78125,1.36523226 12.78125,1.7890625 L12.78125,3.57324219 L17.3955078,3.57324219 Z M7.53125,1.7890625 L7.53125,3.57324219 L11.46875,3.57324219 L11.46875,1.7890625 C11.46875,1.73437473 11.4482424,1.68652364 11.4072266,1.64550781 C11.3662107,1.60449198 11.3183596,1.58398438 11.2636719,1.58398438 L7.73632812,1.58398438 C7.68164035,1.58398438 7.63378927,1.60449198 7.59277344,1.64550781 C7.55175761,1.68652364 7.53125,1.73437473 7.53125,1.7890625 Z M13.6630859,19.9384766 L15.1601562,4.88574219 L3.83984375,4.88574219 L5.33691406,19.9384766 C5.33691406,19.9521485 5.34716787,19.9692382 5.36767578,19.9897461 C5.3881837,20.010254 5.40527337,20.0205078 5.41894531,20.0205078 L13.5810547,20.0205078 C13.5947266,20.0205078 13.6118163,20.0136719 13.6323242,20 C13.6528321,19.9863281 13.6630859,19.9658204 13.6630859,19.9384766 Z" id="Trash---simple-line-icons-Copy-4" fill="#9855CA"></path>
    </g>
</svg>